<svg id="Layer_1" data-name="Layer 1" xmlns="http://www.w3.org/2000/svg" viewBox="0 0 227.7 76.47"><defs><style>.cls-1{fill:#231f20;}.cls-2{fill:#fff;}.cls-3{fill:#ee3124;}</style></defs><title>adobe_logo</title><rect class="cls-1" width="227.7" height="76.47"/><path class="cls-2" d="M91.54,50.22,89.39,61H81.48l9.87-44.89H101L110,61h-8L100,50.22ZM99.2,43.9l-1.65-9.73C97.08,31.36,96.48,27,96,24h-.17c-.49,3.05-1.16,7.56-1.66,10.23L92.42,43.9Z"/><path class="cls-2" d="M136.13,14.92V51.7c0,2.92.15,6.51.27,9.31h-7l-.46-3.74h-.17a7.81,7.81,0,0,1-6.8,4.28c-6.72,0-10-7.39-10-16.72,0-11.36,5-16.89,10.38-16.89a5.75,5.75,0,0,1,5.58,3.38H128V14.92ZM128,41a10.93,10.93,0,0,0-.12-1.94c-.31-2.22-1.5-4.21-3.4-4.21C121.23,34.81,120,39.5,120,45c0,6.3,1.71,9.89,4.35,9.89,1.21,0,2.6-.62,3.36-3.27a6.63,6.63,0,0,0,.28-2.06Z"/><path class="cls-2" d="M152.89,61.55c-7.48,0-12.18-6-12.18-16.71,0-11.69,6-16.89,12.36-16.89,7.38,0,12,6.28,12,16.71,0,13.39-7.25,16.9-12.13,16.9Zm.15-6.21c3.1,0,3.87-5.82,3.87-10.64,0-4.58-.77-10.55-4-10.55-3.43,0-4.15,6-4.15,10.55,0,5.52.91,10.64,4.22,10.64Z"/><path class="cls-2" d="M169.62,14.92h8.12v17h.13a7.64,7.64,0,0,1,6.82-3.94c6.12,0,9.19,6.94,9.19,16,0,11.46-4.59,17.6-10.52,17.6-2.84,0-4.73-1.26-6.42-4.43h-.17L176.32,61h-7c.12-2.71.27-6.39.27-9.31Zm8.12,34.47a6.62,6.62,0,0,0,.32,2.08c.81,2.73,2.2,3.4,3.3,3.4,3.13,0,4.41-4,4.41-10.32,0-5.77-1.34-9.75-4.44-9.75-1.54,0-2.83,1.67-3.28,3.46a8.54,8.54,0,0,0-.31,2Z"/><path class="cls-2" d="M205.16,47.36c.1,5.88,3.2,7.79,7,7.79A17.1,17.1,0,0,0,218.3,54l1.09,5.82a23.78,23.78,0,0,1-8.66,1.51c-8.72,0-13.48-5.94-13.48-16.06,0-10.88,5.53-17.41,12.73-17.41,7,0,10.83,5.77,10.83,15.2a29.42,29.42,0,0,1-.24,4.31Zm8.18-5.72c0-4.56-1.3-7.77-3.87-7.77-2.94,0-4.19,4.29-4.29,7.77Z"/><polygon class="cls-3" points="51.16 5.95 78.23 5.95 78.23 70.52 51.16 5.95"/><polygon class="cls-3" points="32.09 5.95 5 5.95 5 70.52 32.09 5.95"/><polygon class="cls-3" points="41.63 29.74 58.88 70.52 47.58 70.52 42.42 57.53 29.79 57.53 41.63 29.74"/><path d="M85,5.82a3.43,3.43,0,0,1,0,6.86,3.43,3.43,0,1,1,0-6.86Zm0,.58A2.79,2.79,0,0,0,82.2,9.25a2.74,2.74,0,1,0,5.48,0A2.78,2.78,0,0,0,85,6.4Zm-.63,4.84h-.69V7.42a7,7,0,0,1,1.15-.11A2,2,0,0,1,86,7.62a1,1,0,0,1,.34.79.92.92,0,0,1-.73.91v0c.34.06.55.37.63.93a3.49,3.49,0,0,0,.23.95h-.7a3,3,0,0,1-.24-1,.7.7,0,0,0-.81-.64h-.4Zm0-2.15h.41c.51,0,.92-.17.92-.61s-.24-.64-.89-.64a3.47,3.47,0,0,0-.44,0Z"/></svg>