<svg id="Layer_1" data-name="Layer 1" xmlns="http://www.w3.org/2000/svg" viewBox="0 0 140.59 179.5"><defs><style>.cls-1{fill:#fff;}</style></defs><title>if</title><path class="cls-1" d="M44.93,111.92c0-9.75,0-11-6.75-15.5l-2.25-1.5c-1-1-1-3.75.25-4.5,5.75-2,20-8.5,25.75-12.25a2.31,2.31,0,0,1,2.5,1.5c-.5,8.75-1,20.75-1,31v45c0,18,.5,20.5,9.5,21.75l5.25.75c1.75,1.25,1.25,5.5-.5,6.25-7.5-.5-14.75-.75-23.5-.75-9,0-16.5.25-23.5.75-1.75-.75-2.25-5-.5-6.25l5.25-.75c9.25-1.25,9.5-3.75,9.5-21.75ZM65.68,40.67c0,9-6.25,13-13.25,13a12.29,12.29,0,0,1-12.75-12.5c0-8.25,6-13.5,13.5-13.5S65.68,33.67,65.68,40.67Z" transform="translate(-29.09 -4.92)"/><path class="cls-1" d="M115.18,95.67c-4.25,0-4.25.5-4.25,7.25v52.75c0,18,.5,21,9.5,21.75l9,.75c1.75,1.25,1.25,5.5-.5,6.25-11.25-.5-18.5-.75-27.25-.75-9,0-16.5.25-24,.75-1.75-.75-2.25-5-.5-6.25l5.75-.75c9.25-1.25,9.5-3.75,9.5-21.75V102.92c0-6.75,0-7.25-5-7.25H78.68a3.5,3.5,0,0,1-.75-4.75l10.75-5.25c2-1,3.75-2.5,3.75-5,0-14.5,1.75-30,7.75-44,6.25-14.25,20.25-31.75,45-31.75,13.25,0,24.5,6,24.5,15,0,5-4.75,9-9.5,9-2.75,0-4.25-1-6-3-4.75-5.5-11.75-11-20-11-7.75,0-14,4.75-17.75,13.75-4.5,11.5-5.5,29.75-5.5,42.25v7.25c0,6.75,0,7,4.25,7h28.5c2.75,2.5,1,9.5-1.75,10.5Z" transform="translate(-29.09 -4.92)"/></svg>